<svg width="77" height="69" fill="none" xmlns="http://www.w3.org/2000/svg"><path d="M59.017 23.609H14.42v22.674h44.596V23.61z" fill="#E9041E"/><path d="M59.017 45.929H14.42v22.32h44.596V45.93z" fill="#000"/><path d="M51.377 44.512H22.238v2.657h29.139v-2.657z" fill="#fff"/><path d="M13.08 33.558c-3.999 2.17-11.64 8.613-10.209 17.035m-1.179 4.546c-1.292-1.58-.175-3.828 1.179-4.02 1.692-.24 1.07 1.531 2.65 2.44m-.694-2.966c-2.656-.634-3.098 2.227-.886 5.168M60.31 31.07c5.853-3.19 14.881-14.833 9.713-23.35m-5.407-2.8c.527 1.604 3.087 3.991 5.192 2.537 2.105-1.455-.072-4.666.335-6.15m-4.69-.214c.862 1.658 2.9 5.191 4.164 6.053 1.263.86-.79 2.87-3.182 2.727m8.565.622c1.292 2.058 1.54 6.709-.91 9.427m-6.842-6.556c.303.622.67 3.302-.813 4.642" stroke="#000" stroke-linecap="round"/></svg>