<svg xmlns="http://www.w3.org/2000/svg" width="220" height="220"><path fill="#fff" d="M0 0h220v220H0z"/><path d="M4 4h4v4H4zm4 0h4v4H8zm4 0h4v4h-4zm4 0h4v4h-4zm4 0h4v4h-4zm4 0h4v4h-4zm4 0h4v4h-4zm40 0h4v4h-4zm20 0h4v4h-4zm4 0h4v4h-4zm8 0h4v4h-4zm36 0h4v4h-4zm4 0h4v4h-4zm8 0h4v4h-4zm8 0h4v4h-4zm4 0h4v4h-4zm8 0h4v4h-4zm4 0h4v4h-4zm16 0h4v4h-4zm4 0h4v4h-4zm4 0h4v4h-4zm4 0h4v4h-4zm4 0h4v4h-4zm4 0h4v4h-4zm4 0h4v4h-4zM4 8h4v4H4zm24 0h4v4h-4zm8 0h4v4h-4zm4 0h4v4h-4zm4 0h4v4h-4zm8 0h4v4h-4zm4 0h4v4h-4zm8 0h4v4h-4zm4 0h4v4h-4zm4 0h4v4h-4zm4 0h4v4h-4zm12 0h4v4h-4zm4 0h4v4h-4zm4 0h4v4h-4zm12 0h4v4h-4zm8 0h4v4h-4zm4 0h4v4h-4zm4 0h4v4h-4zm16 0h4v4h-4zm8 0h4v4h-4zm4 0h4v4h-4zm4 0h4v4h-4zm4 0h4v4h-4zm12 0h4v4h-4zm4 0h4v4h-4zm12 0h4v4h-4zm24 0h4v4h-4zM4 12h4v4H4zm8 0h4v4h-4zm4 0h4v4h-4zm4 0h4v4h-4zm8 0h4v4h-4zm16 0h4v4h-4zm8 0h4v4h-4zm8 0h4v4h-4zm8 0h4v4h-4zm4 0h4v4h-4zm4 0h4v4h-4zm12 0h4v4h-4zm4 0h4v4h-4zm12 0h4v4h-4zm8 0h4v4h-4zm4 0h4v4h-4zm8 0h4v4h-4zm8 0h4v4h-4zm4 0h4v4h-4zm8 0h4v4h-4zm4 0h4v4h-4zm8 0h4v4h-4zm4 0h4v4h-4zm16 0h4v4h-4zm12 0h4v4h-4zm8 0h4v4h-4zm4 0h4v4h-4zm4 0h4v4h-4zm8 0h4v4h-4zM4 16h4v4H4zm8 0h4v4h-4zm4 0h4v4h-4zm4 0h4v4h-4zm8 0h4v4h-4zm8 0h4v4h-4zm12 0h4v4h-4zm4 0h4v4h-4zm4 0h4v4h-4zm4 0h4v4h-4zm4 0h4v4h-4zm4 0h4v4h-4zm4 0h4v4h-4zm4 0h4v4h-4zm16 0h4v4h-4zm4 0h4v4h-4zm12 0h4v4h-4zm8 0h4v4h-4zm4 0h4v4h-4zm4 0h4v4h-4zm4 0h4v4h-4zm12 0h4v4h-4zm4 0h4v4h-4zm4 0h4v4h-4zm8 0h4v4h-4zm4 0h4v4h-4zm12 0h4v4h-4zm8 0h4v4h-4zm8 0h4v4h-4zm8 0h4v4h-4zm4 0h4v4h-4zm4 0h4v4h-4zm8 0h4v4h-4zM4 20h4v4H4zm8 0h4v4h-4zm4 0h4v4h-4zm4 0h4v4h-4zm8 0h4v4h-4zm16 0h4v4h-4zm8 0h4v4h-4zm4 0h4v4h-4zm20 0h4v4h-4zm4 0h4v4h-4zm20 0h4v4h-4zm4 0h4v4h-4zm4 0h4v4h-4zm4 0h4v4h-4zm4 0h4v4h-4zm4 0h4v4h-4zm4 0h4v4h-4zm4 0h4v4h-4zm4 0h4v4h-4zm16 0h4v4h-4zm4 0h4v4h-4zm16 0h4v4h-4zm4 0h4v4h-4zm16 0h4v4h-4zm8 0h4v4h-4zm4 0h4v4h-4zm4 0h4v4h-4zm8 0h4v4h-4zM4 24h4v4H4zm24 0h4v4h-4zm8 0h4v4h-4zm12 0h4v4h-4zm16 0h4v4h-4zm4 0h4v4h-4zm8 0h4v4h-4zm16 0h4v4h-4zm4 0h4v4h-4zm4 0h4v4h-4zm16 0h4v4h-4zm20 0h4v4h-4zm12 0h4v4h-4zm16 0h4v4h-4zm4 0h4v4h-4zm4 0h4v4h-4zm16 0h4v4h-4zm24 0h4v4h-4zM4 28h4v4H4zm4 0h4v4H8zm4 0h4v4h-4zm4 0h4v4h-4zm4 0h4v4h-4zm4 0h4v4h-4zm4 0h4v4h-4zm8 0h4v4h-4zm8 0h4v4h-4zm8 0h4v4h-4zm8 0h4v4h-4zm8 0h4v4h-4zm8 0h4v4h-4zm8 0h4v4h-4zm8 0h4v4h-4zm8 0h4v4h-4zm8 0h4v4h-4zm8 0h4v4h-4zm8 0h4v4h-4zm8 0h4v4h-4zm8 0h4v4h-4zm8 0h4v4h-4zm8 0h4v4h-4zm8 0h4v4h-4zm8 0h4v4h-4zm8 0h4v4h-4zm8 0h4v4h-4zm4 0h4v4h-4zm4 0h4v4h-4zm4 0h4v4h-4zm4 0h4v4h-4zm4 0h4v4h-4zm4 0h4v4h-4zM44 32h4v4h-4zm4 0h4v4h-4zm4 0h4v4h-4zm4 0h4v4h-4zm8 0h4v4h-4zm8 0h4v4h-4zm4 0h4v4h-4zm4 0h4v4h-4zm8 0h4v4h-4zm4 0h4v4h-4zm8 0h4v4h-4zm16 0h4v4h-4zm12 0h4v4h-4zm12 0h4v4h-4zm4 0h4v4h-4zm4 0h4v4h-4zm20 0h4v4h-4zM4 36h4v4H4zm4 0h4v4H8zm4 0h4v4h-4zm4 0h4v4h-4zm4 0h4v4h-4zm8 0h4v4h-4zm4 0h4v4h-4zm4 0h4v4h-4zm4 0h4v4h-4zm8 0h4v4h-4zm24 0h4v4h-4zm4 0h4v4h-4zm24 0h4v4h-4zm4 0h4v4h-4zm4 0h4v4h-4zm4 0h4v4h-4zm4 0h4v4h-4zm12 0h4v4h-4zm4 0h4v4h-4zm4 0h4v4h-4zm8 0h4v4h-4zm20 0h4v4h-4zm20 0h4v4h-4zm8 0h4v4h-4zm8 0h4v4h-4zm8 0h4v4h-4zM8 40h4v4H8zm8 0h4v4h-4zm4 0h4v4h-4zm4 0h4v4h-4zm32 0h4v4h-4zm8 0h4v4h-4zm12 0h4v4h-4zm8 0h4v4h-4zm8 0h4v4h-4zm8 0h4v4h-4zm16 0h4v4h-4zm4 0h4v4h-4zm12 0h4v4h-4zm8 0h4v4h-4zm12 0h4v4h-4zm4 0h4v4h-4zm16 0h4v4h-4zm4 0h4v4h-4zm12 0h4v4h-4zm16 0h4v4h-4zm4 0h4v4h-4zm4 0h4v4h-4zM4 44h4v4H4zm4 0h4v4H8zm8 0h4v4h-4zm12 0h4v4h-4zm12 0h4v4h-4zm4 0h4v4h-4zm4 0h4v4h-4zm4 0h4v4h-4zm20 0h4v4h-4zm12 0h4v4h-4zm4 0h4v4h-4zm32 0h4v4h-4zm4 0h4v4h-4zm8 0h4v4h-4zm12 0h4v4h-4zm8 0h4v4h-4zm8 0h4v4h-4zm8 0h4v4h-4zm12 0h4v4h-4zm12 0h4v4h-4zm4 0h4v4h-4zm8 0h4v4h-4zm8 0h4v4h-4zM4 48h4v4H4zm16 0h4v4h-4zm4 0h4v4h-4zm8 0h4v4h-4zm8 0h4v4h-4zm4 0h4v4h-4zm4 0h4v4h-4zm16 0h4v4h-4zm12 0h4v4h-4zm8 0h4v4h-4zm12 0h4v4h-4zm4 0h4v4h-4zm8 0h4v4h-4zm12 0h4v4h-4zm8 0h4v4h-4zm4 0h4v4h-4zm4 0h4v4h-4zm16 0h4v4h-4zm8 0h4v4h-4zm4 0h4v4h-4zm12 0h4v4h-4zm8 0h4v4h-4zm4 0h4v4h-4zm4 0h4v4h-4zm4 0h4v4h-4zm4 0h4v4h-4zM16 52h4v4h-4zm4 0h4v4h-4zm8 0h4v4h-4zm16 0h4v4h-4zm4 0h4v4h-4zm12 0h4v4h-4zm4 0h4v4h-4zm4 0h4v4h-4zm8 0h4v4h-4zm4 0h4v4h-4zm8 0h4v4h-4zm4 0h4v4h-4zm12 0h4v4h-4zm4 0h4v4h-4zm4 0h4v4h-4zm16 0h4v4h-4zm20 0h4v4h-4zm4 0h4v4h-4zm20 0h4v4h-4zm4 0h4v4h-4zm4 0h4v4h-4zm4 0h4v4h-4zm4 0h4v4h-4zm24 0h4v4h-4zM4 56h4v4H4zm8 0h4v4h-4zm12 0h4v4h-4zm16 0h4v4h-4zm4 0h4v4h-4zm4 0h4v4h-4zm12 0h4v4h-4zm12 0h4v4h-4zm8 0h4v4h-4zm8 0h4v4h-4zm8 0h4v4h-4zm8 0h4v4h-4zm4 0h4v4h-4zm8 0h4v4h-4zm4 0h4v4h-4zm4 0h4v4h-4zm4 0h4v4h-4zm4 0h4v4h-4zm4 0h4v4h-4zm4 0h4v4h-4zm4 0h4v4h-4zm8 0h4v4h-4zm12 0h4v4h-4zm8 0h4v4h-4zm4 0h4v4h-4zm12 0h4v4h-4zm4 0h4v4h-4zm12 0h4v4h-4zM16 60h4v4h-4zm8 0h4v4h-4zm4 0h4v4h-4zm4 0h4v4h-4zm4 0h4v4h-4zm4 0h4v4h-4zm4 0h4v4h-4zm12 0h4v4h-4zm4 0h4v4h-4zm4 0h4v4h-4zm4 0h4v4h-4zm8 0h4v4h-4zm8 0h4v4h-4zm4 0h4v4h-4zm8 0h4v4h-4zm4 0h4v4h-4zm4 0h4v4h-4zm4 0h4v4h-4zm4 0h4v4h-4zm4 0h4v4h-4zm16 0h4v4h-4zm4 0h4v4h-4zm4 0h4v4h-4zm24 0h4v4h-4zm4 0h4v4h-4zm8 0h4v4h-4zm8 0h4v4h-4zm8 0h4v4h-4zm4 0h4v4h-4zm4 0h4v4h-4zm4 0h4v4h-4zm8 0h4v4h-4zM4 64h4v4H4zm4 0h4v4H8zm8 0h4v4h-4zm4 0h4v4h-4zm4 0h4v4h-4zm16 0h4v4h-4zm8 0h4v4h-4zm12 0h4v4h-4zm8 0h4v4h-4zm8 0h4v4h-4zm8 0h4v4h-4zm4 0h4v4h-4zm4 0h4v4h-4zm4 0h4v4h-4zm8 0h4v4h-4zm8 0h4v4h-4zm12 0h4v4h-4zm4 0h4v4h-4zm4 0h4v4h-4zm4 0h4v4h-4zm8 0h4v4h-4zm16 0h4v4h-4zm24 0h4v4h-4zm4 0h4v4h-4zm12 0h4v4h-4zm4 0h4v4h-4zM4 68h4v4H4zm8 0h4v4h-4zm4 0h4v4h-4zm4 0h4v4h-4zm8 0h4v4h-4zm12 0h4v4h-4zm4 0h4v4h-4zm8 0h4v4h-4zm4 0h4v4h-4zm4 0h4v4h-4zm4 0h4v4h-4zm12 0h4v4h-4zm4 0h4v4h-4zm16 0h4v4h-4zm4 0h4v4h-4zm4 0h4v4h-4zm4 0h4v4h-4zm4 0h4v4h-4zm12 0h4v4h-4zm12 0h4v4h-4zm24 0h4v4h-4zm4 0h4v4h-4zm24 0h4v4h-4zm4 0h4v4h-4zm4 0h4v4h-4zm4 0h4v4h-4zm4 0h4v4h-4zm4 0h4v4h-4zM8 72h4v4H8zm4 0h4v4h-4zm4 0h4v4h-4zm4 0h4v4h-4zm4 0h4v4h-4zm16 0h4v4h-4zm4 0h4v4h-4zm4 0h4v4h-4zm4 0h4v4h-4zm16 0h4v4h-4zm8 0h4v4h-4zm8 0h4v4h-4zm8 0h4v4h-4zm4 0h4v4h-4zm4 0h4v4h-4zm12 0h4v4h-4zm4 0h4v4h-4zm16 0h4v4h-4zm4 0h4v4h-4zm4 0h4v4h-4zm8 0h4v4h-4zm8 0h4v4h-4zm12 0h4v4h-4zm8 0h4v4h-4zm20 0h4v4h-4zm12 0h4v4h-4zM4 76h4v4H4zm4 0h4v4H8zm8 0h4v4h-4zm12 0h4v4h-4zm4 0h4v4h-4zm4 0h4v4h-4zm4 0h4v4h-4zm24 0h4v4h-4zm4 0h4v4h-4zm16 0h4v4h-4zm4 0h4v4h-4zm20 0h4v4h-4zm12 0h4v4h-4zm8 0h4v4h-4zm4 0h4v4h-4zm8 0h4v4h-4zm8 0h4v4h-4zm4 0h4v4h-4zm4 0h4v4h-4zm4 0h4v4h-4zm8 0h4v4h-4zm4 0h4v4h-4zm8 0h4v4h-4zm4 0h4v4h-4zm12 0h4v4h-4zm8 0h4v4h-4zm4 0h4v4h-4zM4 80h4v4H4zm4 0h4v4H8zm4 0h4v4h-4zm12 0h4v4h-4zm8 0h4v4h-4zm8 0h4v4h-4zm28 0h4v4h-4zm4 0h4v4h-4zm8 0h4v4h-4zm4 0h4v4h-4zm12 0h4v4h-4zm4 0h4v4h-4zm20 0h4v4h-4zm4 0h4v4h-4zm8 0h4v4h-4zm12 0h4v4h-4zm8 0h4v4h-4zm4 0h4v4h-4zm4 0h4v4h-4zm4 0h4v4h-4zm8 0h4v4h-4zm8 0h4v4h-4zm4 0h4v4h-4zm4 0h4v4h-4zm12 0h4v4h-4zM4 84h4v4H4zm4 0h4v4H8zm4 0h4v4h-4zm8 0h4v4h-4zm8 0h4v4h-4zm8 0h4v4h-4zm8 0h4v4h-4zm12 0h4v4h-4zm20 0h4v4h-4zm16 0h4v4h-4zm4 0h4v4h-4zm4 0h4v4h-4zm4 0h4v4h-4zm4 0h4v4h-4zm8 0h4v4h-4zm8 0h4v4h-4zm4 0h4v4h-4zm8 0h4v4h-4zm12 0h4v4h-4zm4 0h4v4h-4zm16 0h4v4h-4zm4 0h4v4h-4zm8 0h4v4h-4zm4 0h4v4h-4zm4 0h4v4h-4zm8 0h4v4h-4zm4 0h4v4h-4zm4 0h4v4h-4zM16 88h4v4h-4zm4 0h4v4h-4zm4 0h4v4h-4zm12 0h4v4h-4zm4 0h4v4h-4zm4 0h4v4h-4zm16 0h4v4h-4zm40 0h4v4h-4zm4 0h4v4h-4zm16 0h4v4h-4zm4 0h4v4h-4zm4 0h4v4h-4zm12 0h4v4h-4zm4 0h4v4h-4zm8 0h4v4h-4zm12 0h4v4h-4zm4 0h4v4h-4zm4 0h4v4h-4zm4 0h4v4h-4zm16 0h4v4h-4zm4 0h4v4h-4zm8 0h4v4h-4zm4 0h4v4h-4zm4 0h4v4h-4zM4 92h4v4H4zm4 0h4v4H8zm8 0h4v4h-4zm4 0h4v4h-4zm4 0h4v4h-4zm4 0h4v4h-4zm4 0h4v4h-4zm4 0h4v4h-4zm4 0h4v4h-4zm8 0h4v4h-4zm4 0h4v4h-4zm12 0h4v4h-4zm8 0h4v4h-4zm24 0h4v4h-4zm12 0h4v4h-4zm8 0h4v4h-4zm4 0h4v4h-4zm8 0h4v4h-4zm12 0h4v4h-4zm20 0h4v4h-4zm12 0h4v4h-4zm4 0h4v4h-4zm8 0h4v4h-4zm8 0h4v4h-4zm8 0h4v4h-4zM4 96h4v4H4zm12 0h4v4h-4zm4 0h4v4h-4zm4 0h4v4h-4zm8 0h4v4h-4zm4 0h4v4h-4zm4 0h4v4h-4zm8 0h4v4h-4zm4 0h4v4h-4zm4 0h4v4h-4zm12 0h4v4h-4zm36 0h4v4h-4zm8 0h4v4h-4zm8 0h4v4h-4zm16 0h4v4h-4zm8 0h4v4h-4zm4 0h4v4h-4zm4 0h4v4h-4zm4 0h4v4h-4zm16 0h4v4h-4zm4 0h4v4h-4zm4 0h4v4h-4zm4 0h4v4h-4zm16 0h4v4h-4zm4 0h4v4h-4zm4 0h4v4h-4zm4 0h4v4h-4zM4 100h4v4H4zm4 0h4v4H8zm4 0h4v4h-4zm8 0h4v4h-4zm4 0h4v4h-4zm4 0h4v4h-4zm4 0h4v4h-4zm4 0h4v4h-4zm8 0h4v4h-4zm8 0h4v4h-4zm20 0h4v4h-4zm12 0h4v4h-4zm4 0h4v4h-4zm12 0h4v4h-4zm4 0h4v4h-4zm4 0h4v4h-4zm4 0h4v4h-4zm4 0h4v4h-4zm12 0h4v4h-4zm8 0h4v4h-4zm8 0h4v4h-4zm8 0h4v4h-4zm12 0h4v4h-4zm8 0h4v4h-4zm8 0h4v4h-4zm4 0h4v4h-4zm4 0h4v4h-4zm4 0h4v4h-4zm4 0h4v4h-4zm4 0h4v4h-4zm8 0h4v4h-4zm4 0h4v4h-4zM8 104h4v4H8zm4 0h4v4h-4zm4 0h4v4h-4zm4 0h4v4h-4zm16 0h4v4h-4zm4 0h4v4h-4zm4 0h4v4h-4zm4 0h4v4h-4zm4 0h4v4h-4zm4 0h4v4h-4zm8 0h4v4h-4zm12 0h4v4h-4zm4 0h4v4h-4zm4 0h4v4h-4zm4 0h4v4h-4zm12 0h4v4h-4zm16 0h4v4h-4zm4 0h4v4h-4zm12 0h4v4h-4zm8 0h4v4h-4zm12 0h4v4h-4zm4 0h4v4h-4zm4 0h4v4h-4zm4 0h4v4h-4zm16 0h4v4h-4zm16 0h4v4h-4zm8 0h4v4h-4zm4 0h4v4h-4zM4 108h4v4H4zm4 0h4v4H8zm4 0h4v4h-4zm8 0h4v4h-4zm8 0h4v4h-4zm8 0h4v4h-4zm4 0h4v4h-4zm4 0h4v4h-4zm8 0h4v4h-4zm24 0h4v4h-4zm12 0h4v4h-4zm12 0h4v4h-4zm8 0h4v4h-4zm8 0h4v4h-4zm4 0h4v4h-4zm4 0h4v4h-4zm8 0h4v4h-4zm20 0h4v4h-4zm8 0h4v4h-4zm4 0h4v4h-4zm4 0h4v4h-4zm4 0h4v4h-4zm8 0h4v4h-4zm8 0h4v4h-4zm8 0h4v4h-4zm8 0h4v4h-4zm8 0h4v4h-4zM4 112h4v4H4zm12 0h4v4h-4zm4 0h4v4h-4zm16 0h4v4h-4zm4 0h4v4h-4zm4 0h4v4h-4zm4 0h4v4h-4zm4 0h4v4h-4zm12 0h4v4h-4zm12 0h4v4h-4zm4 0h4v4h-4zm4 0h4v4h-4zm4 0h4v4h-4zm12 0h4v4h-4zm16 0h4v4h-4zm8 0h4v4h-4zm8 0h4v4h-4zm4 0h4v4h-4zm12 0h4v4h-4zm12 0h4v4h-4zm4 0h4v4h-4zm8 0h4v4h-4zm8 0h4v4h-4zm16 0h4v4h-4zm4 0h4v4h-4zM4 116h4v4H4zm8 0h4v4h-4zm8 0h4v4h-4zm4 0h4v4h-4zm4 0h4v4h-4zm4 0h4v4h-4zm4 0h4v4h-4zm12 0h4v4h-4zm4 0h4v4h-4zm4 0h4v4h-4zm12 0h4v4h-4zm8 0h4v4h-4zm12 0h4v4h-4zm4 0h4v4h-4zm8 0h4v4h-4zm4 0h4v4h-4zm4 0h4v4h-4zm4 0h4v4h-4zm4 0h4v4h-4zm12 0h4v4h-4zm12 0h4v4h-4zm4 0h4v4h-4zm4 0h4v4h-4zm4 0h4v4h-4zm20 0h4v4h-4zm8 0h4v4h-4zm4 0h4v4h-4zm4 0h4v4h-4zm4 0h4v4h-4zm4 0h4v4h-4zm8 0h4v4h-4zm-192 4h4v4h-4zm4 0h4v4h-4zm4 0h4v4h-4zm4 0h4v4h-4zm8 0h4v4h-4zm8 0h4v4h-4zm4 0h4v4h-4zm12 0h4v4h-4zm8 0h4v4h-4zm4 0h4v4h-4zm4 0h4v4h-4zm12 0h4v4h-4zm8 0h4v4h-4zm4 0h4v4h-4zm16 0h4v4h-4zm12 0h4v4h-4zm28 0h4v4h-4zm8 0h4v4h-4zm4 0h4v4h-4zm4 0h4v4h-4zm4 0h4v4h-4zm4 0h4v4h-4zm4 0h4v4h-4zm4 0h4v4h-4zm4 0h4v4h-4zm4 0h4v4h-4zm4 0h4v4h-4zm4 0h4v4h-4zm4 0h4v4h-4zm4 0h4v4h-4zm-192 4h4v4h-4zm12 0h4v4h-4zm4 0h4v4h-4zm4 0h4v4h-4zm20 0h4v4h-4zm4 0h4v4h-4zm4 0h4v4h-4zm12 0h4v4h-4zm4 0h4v4h-4zm8 0h4v4h-4zm4 0h4v4h-4zm8 0h4v4h-4zm8 0h4v4h-4zm4 0h4v4h-4zm4 0h4v4h-4zm12 0h4v4h-4zm4 0h4v4h-4zm16 0h4v4h-4zm16 0h4v4h-4zm12 0h4v4h-4zm8 0h4v4h-4zm4 0h4v4h-4zm4 0h4v4h-4zm8 0h4v4h-4zM4 128h4v4H4zm12 0h4v4h-4zm20 0h4v4h-4zm4 0h4v4h-4zm4 0h4v4h-4zm16 0h4v4h-4zm4 0h4v4h-4zm8 0h4v4h-4zm4 0h4v4h-4zm12 0h4v4h-4zm4 0h4v4h-4zm4 0h4v4h-4zm4 0h4v4h-4zm4 0h4v4h-4zm4 0h4v4h-4zm16 0h4v4h-4zm12 0h4v4h-4zm8 0h4v4h-4zm4 0h4v4h-4zm16 0h4v4h-4zm8 0h4v4h-4zm4 0h4v4h-4zm4 0h4v4h-4zm4 0h4v4h-4zm8 0h4v4h-4zm4 0h4v4h-4zm12 0h4v4h-4zm4 0h4v4h-4zm-200 4h4v4h-4zm8 0h4v4h-4zm8 0h4v4h-4zm16 0h4v4h-4zm12 0h4v4h-4zm4 0h4v4h-4zm4 0h4v4h-4zm12 0h4v4h-4zm4 0h4v4h-4zm4 0h4v4h-4zm4 0h4v4h-4zm16 0h4v4h-4zm4 0h4v4h-4zm8 0h4v4h-4zm8 0h4v4h-4zm36 0h4v4h-4zm4 0h4v4h-4zm8 0h4v4h-4zm8 0h4v4h-4zm8 0h4v4h-4zm8 0h4v4h-4zm4 0h4v4h-4zm4 0h4v4h-4zm4 0h4v4h-4zm4 0h4v4h-4zm-200 4h4v4h-4zm12 0h4v4h-4zm12 0h4v4h-4zm12 0h4v4h-4zm4 0h4v4h-4zm16 0h4v4h-4zm4 0h4v4h-4zm4 0h4v4h-4zm4 0h4v4h-4zm4 0h4v4h-4zm4 0h4v4h-4zm4 0h4v4h-4zm12 0h4v4h-4zm12 0h4v4h-4zm16 0h4v4h-4zm4 0h4v4h-4zm4 0h4v4h-4zm8 0h4v4h-4zm8 0h4v4h-4zm4 0h4v4h-4zm8 0h4v4h-4zm8 0h4v4h-4zm4 0h4v4h-4zm4 0h4v4h-4zm4 0h4v4h-4zm8 0h4v4h-4zm8 0h4v4h-4zm-180 4h4v4h-4zm4 0h4v4h-4zm4 0h4v4h-4zm8 0h4v4h-4zm4 0h4v4h-4zm8 0h4v4h-4zm12 0h4v4h-4zm4 0h4v4h-4zm8 0h4v4h-4zm4 0h4v4h-4zm8 0h4v4h-4zm8 0h4v4h-4zm16 0h4v4h-4zm8 0h4v4h-4zm16 0h4v4h-4zm12 0h4v4h-4zm4 0h4v4h-4zm4 0h4v4h-4zm4 0h4v4h-4zm8 0h4v4h-4zm4 0h4v4h-4zm4 0h4v4h-4zm12 0h4v4h-4zm16 0h4v4h-4zm8 0h4v4h-4zM4 144h4v4H4zm4 0h4v4H8zm4 0h4v4h-4zm12 0h4v4h-4zm8 0h4v4h-4zm4 0h4v4h-4zm8 0h4v4h-4zm8 0h4v4h-4zm8 0h4v4h-4zm8 0h4v4h-4zm12 0h4v4h-4zm8 0h4v4h-4zm8 0h4v4h-4zm4 0h4v4h-4zm12 0h4v4h-4zm4 0h4v4h-4zm4 0h4v4h-4zm12 0h4v4h-4zm4 0h4v4h-4zm4 0h4v4h-4zm4 0h4v4h-4zm4 0h4v4h-4zm8 0h4v4h-4zm4 0h4v4h-4zm4 0h4v4h-4zm4 0h4v4h-4zm4 0h4v4h-4zm8 0h4v4h-4zm4 0h4v4h-4zm28 0h4v4h-4zM4 148h4v4H4zm12 0h4v4h-4zm4 0h4v4h-4zm8 0h4v4h-4zm20 0h4v4h-4zm4 0h4v4h-4zm12 0h4v4h-4zm12 0h4v4h-4zm4 0h4v4h-4zm12 0h4v4h-4zm4 0h4v4h-4zm4 0h4v4h-4zm4 0h4v4h-4zm24 0h4v4h-4zm16 0h4v4h-4zm4 0h4v4h-4zm4 0h4v4h-4zm8 0h4v4h-4zm8 0h4v4h-4zm24 0h4v4h-4zm4 0h4v4h-4zm8 0h4v4h-4zm8 0h4v4h-4zm-188 4h4v4h-4zm8 0h4v4h-4zm4 0h4v4h-4zm4 0h4v4h-4zm4 0h4v4h-4zm4 0h4v4h-4zm12 0h4v4h-4zm20 0h4v4h-4zm4 0h4v4h-4zm12 0h4v4h-4zm8 0h4v4h-4zm4 0h4v4h-4zm4 0h4v4h-4zm8 0h4v4h-4zm4 0h4v4h-4zm8 0h4v4h-4zm12 0h4v4h-4zm8 0h4v4h-4zm8 0h4v4h-4zm8 0h4v4h-4zm4 0h4v4h-4zm8 0h4v4h-4zm4 0h4v4h-4zm4 0h4v4h-4zm8 0h4v4h-4zm4 0h4v4h-4zm8 0h4v4h-4zM8 156h4v4H8zm4 0h4v4h-4zm4 0h4v4h-4zm8 0h4v4h-4zm4 0h4v4h-4zm4 0h4v4h-4zm8 0h4v4h-4zm4 0h4v4h-4zm8 0h4v4h-4zm12 0h4v4h-4zm8 0h4v4h-4zm16 0h4v4h-4zm24 0h4v4h-4zm4 0h4v4h-4zm4 0h4v4h-4zm4 0h4v4h-4zm4 0h4v4h-4zm4 0h4v4h-4zm4 0h4v4h-4zm8 0h4v4h-4zm20 0h4v4h-4zm24 0h4v4h-4zm8 0h4v4h-4zm4 0h4v4h-4zm8 0h4v4h-4zM4 160h4v4H4zm4 0h4v4H8zm8 0h4v4h-4zm4 0h4v4h-4zm4 0h4v4h-4zm16 0h4v4h-4zm4 0h4v4h-4zm4 0h4v4h-4zm8 0h4v4h-4zm8 0h4v4h-4zm16 0h4v4h-4zm8 0h4v4h-4zm8 0h4v4h-4zm4 0h4v4h-4zm20 0h4v4h-4zm8 0h4v4h-4zm4 0h4v4h-4zm4 0h4v4h-4zm8 0h4v4h-4zm4 0h4v4h-4zm4 0h4v4h-4zm20 0h4v4h-4zm4 0h4v4h-4zm4 0h4v4h-4zm4 0h4v4h-4zm4 0h4v4h-4zm20 0h4v4h-4zm4 0h4v4h-4zM4 164h4v4H4zm4 0h4v4H8zm4 0h4v4h-4zm4 0h4v4h-4zm4 0h4v4h-4zm4 0h4v4h-4zm4 0h4v4h-4zm4 0h4v4h-4zm8 0h4v4h-4zm8 0h4v4h-4zm4 0h4v4h-4zm20 0h4v4h-4zm8 0h4v4h-4zm4 0h4v4h-4zm24 0h4v4h-4zm8 0h4v4h-4zm8 0h4v4h-4zm8 0h4v4h-4zm4 0h4v4h-4zm8 0h4v4h-4zm20 0h4v4h-4zm8 0h4v4h-4zm8 0h4v4h-4zm12 0h4v4h-4zm4 0h4v4h-4zm12 0h4v4h-4zm4 0h4v4h-4zM4 168h4v4H4zm4 0h4v4H8zm16 0h4v4h-4zm16 0h4v4h-4zm8 0h4v4h-4zm4 0h4v4h-4zm4 0h4v4h-4zm8 0h4v4h-4zm12 0h4v4h-4zm8 0h4v4h-4zm4 0h4v4h-4zm8 0h4v4h-4zm4 0h4v4h-4zm4 0h4v4h-4zm8 0h4v4h-4zm4 0h4v4h-4zm4 0h4v4h-4zm20 0h4v4h-4zm8 0h4v4h-4zm4 0h4v4h-4zm4 0h4v4h-4zm20 0h4v4h-4zm8 0h4v4h-4zm8 0h4v4h-4zm4 0h4v4h-4zm8 0h4v4h-4zM4 172h4v4H4zm4 0h4v4H8zm8 0h4v4h-4zm4 0h4v4h-4zm4 0h4v4h-4zm4 0h4v4h-4zm8 0h4v4h-4zm12 0h4v4h-4zm4 0h4v4h-4zm4 0h4v4h-4zm28 0h4v4h-4zm4 0h4v4h-4zm8 0h4v4h-4zm4 0h4v4h-4zm20 0h4v4h-4zm4 0h4v4h-4zm24 0h4v4h-4zm4 0h4v4h-4zm16 0h4v4h-4zm8 0h4v4h-4zm4 0h4v4h-4zm4 0h4v4h-4zm16 0h4v4h-4zm8 0h4v4h-4zm4 0h4v4h-4zM8 176h4v4H8zm4 0h4v4h-4zm20 0h4v4h-4zm4 0h4v4h-4zm8 0h4v4h-4zm4 0h4v4h-4zm12 0h4v4h-4zm4 0h4v4h-4zm16 0h4v4h-4zm4 0h4v4h-4zm4 0h4v4h-4zm12 0h4v4h-4zm8 0h4v4h-4zm8 0h4v4h-4zm4 0h4v4h-4zm4 0h4v4h-4zm4 0h4v4h-4zm8 0h4v4h-4zm4 0h4v4h-4zm8 0h4v4h-4zm4 0h4v4h-4zm4 0h4v4h-4zm4 0h4v4h-4zm4 0h4v4h-4zm4 0h4v4h-4zm28 0h4v4h-4zm4 0h4v4h-4zm4 0h4v4h-4zm-188 4h4v4h-4zm12 0h4v4h-4zm12 0h4v4h-4zm32 0h4v4h-4zm4 0h4v4h-4zm4 0h4v4h-4zm4 0h4v4h-4zm4 0h4v4h-4zm4 0h4v4h-4zm8 0h4v4h-4zm4 0h4v4h-4zm4 0h4v4h-4zm4 0h4v4h-4zm4 0h4v4h-4zm28 0h4v4h-4zm4 0h4v4h-4zm20 0h4v4h-4zm4 0h4v4h-4zm8 0h4v4h-4zm4 0h4v4h-4zm4 0h4v4h-4zm4 0h4v4h-4zm4 0h4v4h-4zm4 0h4v4h-4zm-164 4h4v4h-4zm4 0h4v4h-4zm8 0h4v4h-4zm4 0h4v4h-4zm8 0h4v4h-4zm4 0h4v4h-4zm4 0h4v4h-4zm4 0h4v4h-4zm12 0h4v4h-4zm8 0h4v4h-4zm4 0h4v4h-4zm4 0h4v4h-4zm16 0h4v4h-4zm8 0h4v4h-4zm16 0h4v4h-4zm4 0h4v4h-4zm24 0h4v4h-4zm4 0h4v4h-4zm8 0h4v4h-4zm16 0h4v4h-4zm12 0h4v4h-4zm4 0h4v4h-4zM4 188h4v4H4zm4 0h4v4H8zm4 0h4v4h-4zm4 0h4v4h-4zm4 0h4v4h-4zm4 0h4v4h-4zm4 0h4v4h-4zm8 0h4v4h-4zm12 0h4v4h-4zm8 0h4v4h-4zm12 0h4v4h-4zm8 0h4v4h-4zm12 0h4v4h-4zm4 0h4v4h-4zm4 0h4v4h-4zm4 0h4v4h-4zm8 0h4v4h-4zm8 0h4v4h-4zm12 0h4v4h-4zm12 0h4v4h-4zm4 0h4v4h-4zm4 0h4v4h-4zm4 0h4v4h-4zm4 0h4v4h-4zm4 0h4v4h-4zm4 0h4v4h-4zm16 0h4v4h-4zm8 0h4v4h-4zm8 0h4v4h-4zM4 192h4v4H4zm24 0h4v4h-4zm12 0h4v4h-4zm16 0h4v4h-4zm12 0h4v4h-4zm4 0h4v4h-4zm4 0h4v4h-4zm12 0h4v4h-4zm4 0h4v4h-4zm4 0h4v4h-4zm4 0h4v4h-4zm16 0h4v4h-4zm8 0h4v4h-4zm4 0h4v4h-4zm8 0h4v4h-4zm28 0h4v4h-4zm16 0h4v4h-4zm16 0h4v4h-4zm4 0h4v4h-4zm8 0h4v4h-4zm4 0h4v4h-4zM4 196h4v4H4zm8 0h4v4h-4zm4 0h4v4h-4zm4 0h4v4h-4zm8 0h4v4h-4zm8 0h4v4h-4zm8 0h4v4h-4zm8 0h4v4h-4zm12 0h4v4h-4zm12 0h4v4h-4zm12 0h4v4h-4zm4 0h4v4h-4zm8 0h4v4h-4zm4 0h4v4h-4zm4 0h4v4h-4zm4 0h4v4h-4zm4 0h4v4h-4zm8 0h4v4h-4zm4 0h4v4h-4zm4 0h4v4h-4zm4 0h4v4h-4zm12 0h4v4h-4zm4 0h4v4h-4zm8 0h4v4h-4zm4 0h4v4h-4zm4 0h4v4h-4zm12 0h4v4h-4zm4 0h4v4h-4zm4 0h4v4h-4zm4 0h4v4h-4zm4 0h4v4h-4zm12 0h4v4h-4zm4 0h4v4h-4zM4 200h4v4H4zm8 0h4v4h-4zm4 0h4v4h-4zm4 0h4v4h-4zm8 0h4v4h-4zm8 0h4v4h-4zm4 0h4v4h-4zm4 0h4v4h-4zm4 0h4v4h-4zm8 0h4v4h-4zm12 0h4v4h-4zm4 0h4v4h-4zm4 0h4v4h-4zm4 0h4v4h-4zm8 0h4v4h-4zm8 0h4v4h-4zm8 0h4v4h-4zm8 0h4v4h-4zm20 0h4v4h-4zm4 0h4v4h-4zm4 0h4v4h-4zm8 0h4v4h-4zm8 0h4v4h-4zm4 0h4v4h-4zm8 0h4v4h-4zm12 0h4v4h-4zm4 0h4v4h-4zm12 0h4v4h-4zm8 0h4v4h-4zm4 0h4v4h-4zM4 204h4v4H4zm8 0h4v4h-4zm4 0h4v4h-4zm4 0h4v4h-4zm8 0h4v4h-4zm8 0h4v4h-4zm8 0h4v4h-4zm4 0h4v4h-4zm4 0h4v4h-4zm8 0h4v4h-4zm4 0h4v4h-4zm4 0h4v4h-4zm12 0h4v4h-4zm12 0h4v4h-4zm4 0h4v4h-4zm12 0h4v4h-4zm4 0h4v4h-4zm8 0h4v4h-4zm8 0h4v4h-4zm4 0h4v4h-4zm8 0h4v4h-4zm8 0h4v4h-4zm12 0h4v4h-4zm8 0h4v4h-4zm4 0h4v4h-4zm4 0h4v4h-4zm8 0h4v4h-4zm4 0h4v4h-4zm12 0h4v4h-4zm8 0h4v4h-4zM4 208h4v4H4zm24 0h4v4h-4zm8 0h4v4h-4zm4 0h4v4h-4zm8 0h4v4h-4zm4 0h4v4h-4zm8 0h4v4h-4zm8 0h4v4h-4zm8 0h4v4h-4zm4 0h4v4h-4zm4 0h4v4h-4zm12 0h4v4h-4zm4 0h4v4h-4zm12 0h4v4h-4zm8 0h4v4h-4zm12 0h4v4h-4zm8 0h4v4h-4zm4 0h4v4h-4zm4 0h4v4h-4zm8 0h4v4h-4zm4 0h4v4h-4zm4 0h4v4h-4zm8 0h4v4h-4zm4 0h4v4h-4zm8 0h4v4h-4zm24 0h4v4h-4zm4 0h4v4h-4zM4 212h4v4H4zm4 0h4v4H8zm4 0h4v4h-4zm4 0h4v4h-4zm4 0h4v4h-4zm4 0h4v4h-4zm4 0h4v4h-4zm8 0h4v4h-4zm4 0h4v4h-4zm12 0h4v4h-4zm20 0h4v4h-4zm8 0h4v4h-4zm12 0h4v4h-4zm4 0h4v4h-4zm32 0h4v4h-4zm8 0h4v4h-4zm8 0h4v4h-4zm4 0h4v4h-4zm4 0h4v4h-4zm4 0h4v4h-4zm12 0h4v4h-4zm4 0h4v4h-4zm4 0h4v4h-4zm4 0h4v4h-4zm16 0h4v4h-4zm12 0h4v4h-4z"/></svg>