<svg width="153" height="91" fill="none" xmlns="http://www.w3.org/2000/svg"><g clip-path="url(#clip0)"><path d="M124.104 53.99l-11.08-32.104a7.275 7.275 0 00-9.263-4.51L44.064 37.982a7.275 7.275 0 00-4.51 9.263L50.66 79.42a7.275 7.275 0 009.263 4.51l59.697-20.604c3.781-1.36 5.803-5.514 4.484-9.337zm-12.15-24l6.343 18.38-2.328.803-6.344-18.38 2.329-.803zM49.653 61.722a4.824 4.824 0 013-6.164 4.824 4.824 0 016.165 3 4.824 4.824 0 01-3.001 6.165 4.808 4.808 0 01-6.164-3zm20.14 13.618L57.114 38.605l45.9-15.842 12.679 36.735-45.9 15.842z" fill="#E9041E"/></g><path d="M7.489 67.478c21.743-13.78 80.941-39.395 105.823-49.603-1.437-1.125-7.187-1.375-16.562.375C80.332 21.315-8.101 48.749 2.225 50.156c14.053 1.916 3.978 5.244.718 8.614-2.227 2.302 10.48-4.499 9.33-1.628-1.147 2.871-21.33 20.824-4.784 10.336z" fill="#fff" stroke="#000"/><path d="M115.188 66.626C109 73.94 91.918 82.601 84.118 85.001m-6.055-1.25c1.874-1.125 4.812-.875 5.75.938.937 1.813-.313 3.813-1.813 4.938m1.172-7.126c.867.352 1.594 1.829 1.078 2.5-.84 1.095-4.542 2.188-6.188 2.688m11.376-59.625c11.791-5.167 37.899-16.428 55-21.828m5.25.983s.859.469.546 1.125c-.312.656-1.296.656-1.296.656-1.261-.187-3.926-1.112-4.5-3.312-.719-2.75 1.42-4.888 3.187-5.11 2.609-.328 4.313.703 4.469 2.453.156 1.75-1.375 3.782-3.156 3.657-1.782-.125-3-1.782-2.157-2.594.844-.813 2.25-1.531 2.907-.344" stroke="#000" stroke-linecap="round"/><path d="M42.688 59.125L17.875 70.813m.438-1.876c-2.938.063-7.313 1.563-6.5 4 1.41 4.23 7.088-.062 7.437-1.5m27.875 0L22.437 82.064m.5-2c-4.625.062-5.562 3.187-4.625 4.937.938 1.75 3.94.775 6.313-2.063" stroke="#000"/><defs><clipPath id="clip0"><path fill="#fff" transform="rotate(70.958 44.8 85.12)" d="M0 0h48.635v77.748H0z"/></clipPath></defs></svg>