<svg width="69" height="68" fill="none" xmlns="http://www.w3.org/2000/svg"><g clip-path="url(#clip0)" fill="#E9041E"><path d="M33.516 36.635L.918 22.171V52.74l32.598 14.42V36.634zm2.804 0V67.16l32.598-14.42V22.171L36.32 36.635zM22.346 11.749c0 1.033-3.1 1.864-6.907 1.864s-6.907-.831-6.907-1.864c0-1.033 3.1-1.864 6.907-1.864s6.907.83 6.907 1.864zm38.958 0c0 1.033-3.1 1.864-6.907 1.864-3.806 0-6.907-.831-6.907-1.864 0-1.033 3.1-1.864 6.907-1.864s6.907.83 6.907 1.864zm-19.49-9.726c0 1.034-3.1 1.865-6.907 1.865S28 3.057 28 2.023C28 .99 31.1.16 34.907.16s6.907.831 6.907 1.864zm0 18.283c0 1.034-3.1 1.865-6.907 1.865S28 21.34 28 20.306c0-1.033 3.1-1.864 6.907-1.864s6.907.831 6.907 1.864zM15.44 16.263c-1.733 0-4.697-.157-6.908-1.055v4.402c0 1.056 3.123 1.864 6.907 1.864 3.83 0 6.907-.853 6.907-1.864v-4.402c-2.165.898-5.174 1.055-6.907 1.055zm38.957 0c-1.732 0-4.696-.157-6.907-1.055v4.402c0 1.056 3.123 1.864 6.907 1.864 3.83 0 6.907-.853 6.907-1.864v-4.402c-2.21.898-5.242 1.055-6.907 1.055zm-19.49-9.725c-1.733 0-4.696-.157-6.907-1.056v4.403c0 1.055 3.123 1.864 6.907 1.864 3.83 0 6.907-.854 6.907-1.864V5.482c-2.211.944-5.175 1.056-6.907 1.056z"/><path d="M60.233 23.384c-2.052.583-4.422.696-5.881.696-2.918 0-9.711-.427-9.711-4.515V11.12h.045a3.018 3.018 0 011.026-1.797l-1.071-.427v1.011c0 4.088-6.794 4.515-9.711 4.515-2.918 0-9.711-.427-9.711-4.515V8.47l-1.414.628c.707.54 1.14 1.168 1.3 2.022h.045v8.445c0 4.088-6.793 4.515-9.71 4.515-1.46 0-3.83-.113-5.882-.696l17.69 7.86c-1.232-.696-2.098-1.639-2.098-3.144v-8.423h.046c.638-3.503 6.861-3.93 9.665-3.93 2.804 0 9.005.427 9.666 3.93h.045v8.446c0 1.437-.866 2.448-2.097 3.144l17.758-7.883zm3.83-5.997v2.178c0 1.28-.639 2.179-1.664 2.875l6.45-2.875-4.786-2.178zm-29.156 15.25c-1.573 0-4.308-.112-6.474-.898l6.474 2.875 6.474-2.875c-2.143.741-4.901.898-6.474.898zM5.774 19.565v-2.178L.918 19.52l6.474 2.875c-.98-.651-1.618-1.55-1.618-2.83z"/><path d="M34.907 24.82c-1.733 0-4.696-.156-6.907-1.055v4.403c0 1.055 3.123 1.864 6.907 1.864 3.83 0 6.907-.854 6.907-1.864v-4.403c-2.211.899-5.175 1.056-6.907 1.056z"/></g><defs><clipPath id="clip0"><path fill="#fff" transform="translate(.918 .16)" d="M0 0h68v67H0z"/></clipPath></defs></svg>