<svg width="65" height="62" fill="none" xmlns="http://www.w3.org/2000/svg"><g clip-path="url(#clip0)"><path fill-rule="evenodd" clip-rule="evenodd" d="M41.679 18.25l-8.886 9.285 4.92 5.2 9.363-9.046-.325-.327-4.92-4.938s-.065-.087-.152-.175zm-26.832-.481c2.709-2.731 3.728-7.276.325-10.728-3.511-3.583-10.49-.306-14.067-4.064C-3.25 10.34 6.112 26.573 14.847 17.77zm3.88-1.66l37.625 39.457-1.907 2.01-1.994 1.923-21.197-20.56-22.91 22.22-3.814-3.845 21.912-23.05-12.94-12.65c1.041-.568 2.06-1.29 2.949-2.25 1.018-.94 1.733-2.054 2.275-3.256zm29.628 5.68l-4.834-4.872c-.715-.809-.953-1.836-.802-2.884.087-1.05.629-2.163 1.43-3.037l8.887-10.4c.39-.48 1.192-.568 1.669-.153l2.146 2.163-3.013 3.452c-.39.48-.325 1.202.152 1.595s1.192.393 1.582-.087l2.86-3.365 2.298 2.294-6.025 5.287c-.477.394-.477 1.114-.087 1.595.39.48 1.106.568 1.582.088l6.112-5.288c.802.809 1.583 1.53 2.385 2.316.39.48.39 1.202 0 1.683L54.293 21.22c-.953.808-1.994 1.289-3.013 1.442-1.105.153-2.145-.175-2.925-.874z" fill="#E9041E"/></g><defs><clipPath id="clip0"><path fill="#fff" transform="translate(0 .16)" d="M0 0h65v61H0z"/></clipPath></defs></svg>