<svg width="67" height="67" fill="none" xmlns="http://www.w3.org/2000/svg"><g clip-path="url(#clip0)"><path d="M38.452 44.714l-1.923-6.682a17.686 17.686 0 001.587-1.576l6.73 1.909c.715-1.021 1.319-2.109 1.877-3.263l-5.007-4.818c.246-.71.47-1.42.603-2.175l6.752-1.688c.044-.621.09-1.243.09-1.864 0-.622-.046-1.243-.09-1.865l-6.752-1.687a18.47 18.47 0 00-.603-2.176l5.007-4.795c-.559-1.132-1.162-2.22-1.877-3.241l-6.73 1.91a17.674 17.674 0 00-1.587-1.577l1.923-6.682c-1.029-.71-2.124-1.31-3.264-1.865l-4.851 4.973a17.666 17.666 0 00-2.191-.6l-1.7-6.704c-.624-.044-1.25-.089-1.876-.089-.626 0-1.252.045-1.878.089l-1.699 6.704a18.86 18.86 0 00-2.19.6L13.95 2.579c-1.14.555-2.236 1.154-3.264 1.865l1.923 6.682a17.66 17.66 0 00-1.588 1.576l-6.729-1.91c-.715 1.022-1.319 2.11-1.878 3.242l5.008 4.817a17.35 17.35 0 00-.604 2.176l-6.75 1.687C.044 23.314 0 23.935 0 24.58c0 .622.045 1.243.09 1.865l6.75 1.687c.157.732.359 1.465.604 2.175l-5.007 4.818a22.27 22.27 0 001.878 3.241l6.729-1.887a21.203 21.203 0 001.587 1.576l-1.923 6.682c1.029.71 2.124 1.31 3.264 1.865l4.851-4.973c.716.245 1.431.444 2.191.6l1.7 6.704a26.57 26.57 0 001.877.089c.649 0 1.274-.044 1.878-.089l1.7-6.704a18.803 18.803 0 002.19-.6l4.851 4.973a33.307 33.307 0 003.242-1.887zM24.569 32.926c-4.65 0-8.406-3.73-8.406-8.347 0-4.618 3.756-8.347 8.406-8.347s8.406 3.73 8.406 8.347c0 4.595-3.756 8.347-8.406 8.347zm38.318 17.45c.044-1.355-.157-2.71-.56-4.063l3.086-4.352c-.47-.865-.984-1.687-1.587-2.397l-5.254 1.088c-1.05-.888-2.258-1.577-3.555-2.087l-1.52-5.106a18.12 18.12 0 00-2.906-.244l-2.415 4.75c-.693.134-1.386.333-2.056.578-.67.244-1.23.532-1.811.865l-4.963-1.998a16.169 16.169 0 00-2.012 2.087l2.236 4.84a11.695 11.695 0 00-1.275 3.885l-4.694 2.62c.044.954.178 1.886.402 2.863l5.209 1.288a11.996 11.996 0 002.258 3.418l-.872 5.24a17.681 17.681 0 002.504 1.487l4.247-3.241c1.32.355 2.728.466 4.114.355l3.6 3.93c.49-.156.983-.29 1.474-.467.47-.155.872-.355 1.297-.555l.045-5.328c1.118-.821 2.101-1.82 2.84-2.952l5.342-.333c.358-.866.67-1.798.917-2.73l-4.091-3.442zm-10.284 4.928c-2.973 1.132-6.304-.356-7.422-3.308-1.14-2.953.358-6.26 3.33-7.393 2.974-1.132 6.305.355 7.445 3.308 1.096 2.953-.402 6.26-3.353 7.392z" fill="#E9041E"/></g><defs><clipPath id="clip0"><path fill="#fff" transform="translate(0 .16)" d="M0 0h67v66H0z"/></clipPath></defs></svg>