<svg width="200" height="123" fill="none" xmlns="http://www.w3.org/2000/svg"><path d="M51.108 113.716v-8.12h5.56v8.12h1.6v-9.6h-8.76v9.6h1.6zm9.46-4.8c0 3.28 2.52 5.04 5.12 5.04 2.62 0 5.12-1.76 5.12-5.04 0-3.28-2.5-5.04-5.12-5.04-2.6 0-5.12 1.76-5.12 5.04zm8.64 0c0 2.22-1.56 3.52-3.52 3.52s-3.52-1.3-3.52-3.52c0-2.22 1.56-3.52 3.52-3.52s3.52 1.3 3.52 3.52zm14.295 4.8c2.08 0 3.1-1.08 3.1-2.66 0-1.2-.8-1.96-1.58-2.22.72-.32 1.28-1.12 1.28-2.12 0-1.7-1.28-2.6-2.96-2.6h-5.26v9.6h5.42zm-3.82-4.16h3.66c.8 0 1.66.26 1.66 1.4 0 1.06-.72 1.36-1.72 1.36h-3.6v-2.76zm0-4.04h3.5c.68 0 1.5.28 1.5 1.36 0 .98-.66 1.3-1.5 1.3h-3.5v-2.66zm8.697 3.44c0 3.42 2.62 5 5.14 5 1.2 0 2.22-.22 3.12-.66v-1.6c-.8.48-1.86.78-2.9.78-1.88 0-3.76-1.1-3.76-3.56 0-2.52 1.94-3.56 3.8-3.56 1.02 0 2.04.3 2.76.86v-1.56c-.82-.54-1.88-.78-2.96-.78-2.5 0-5.2 1.58-5.2 5.08zm9.765-.04c0 3.42 2.48 5.04 5.32 5.04 1.26 0 2.52-.24 3.4-.7v-1.56c-.82.46-1.98.78-3.16.78-1.94 0-3.76-.84-3.96-2.86h7.64c.6-2.72-.76-5.74-4.46-5.74-2.28 0-4.78 1.68-4.78 5.04zm7.82-.7h-6.22c.12-1.88 1.64-2.86 3.28-2.86 2.44 0 3.08 1.84 2.94 2.86zm10.978-6.42v-1.44c-1 .66-1.82.88-2.8.88-.98 0-1.8-.22-2.8-.88v1.44c.9.64 1.84.84 2.8.84.96 0 1.9-.2 2.8-.84zm-5.86 11.92l5.88-7.02v7.02h1.6v-9.6h-1.36l-5.88 7.02v-7.02h-1.6v9.6h1.36zm14.758-4.76c0 3.42 2.62 5 5.14 5 1.2 0 2.22-.22 3.12-.66v-1.6c-.8.48-1.86.78-2.9.78-1.88 0-3.76-1.1-3.76-3.56 0-2.52 1.94-3.56 3.8-3.56 1.02 0 2.04.3 2.76.86v-1.56c-.82-.54-1.88-.78-2.96-.78-2.5 0-5.2 1.58-5.2 5.08zm14.601 4.76v-8.12h3.52v-1.48h-8.66v1.48h3.54v8.12h1.6zm6.776-8v-1.6h-1.44v14h1.6v-5.84c.7.82 1.88 1.68 3.72 1.68 2.74 0 4.8-2.16 4.8-5.04s-2.06-5.04-4.8-5.04c-1.84 0-3.02.86-3.88 1.84zm7.08 3.2c0 2.2-1.52 3.56-3.38 3.56-1.72 0-3-1.12-3.54-2.36v-2.4c.54-1.24 1.82-2.36 3.54-2.36 1.86 0 3.38 1.36 3.38 3.56zm11.702 2.8v-3.76c0-2.68-1.62-4.08-4.18-4.08-1.58 0-2.9.38-3.66.64v1.56c.84-.36 2.02-.72 3.5-.72 1.76 0 2.74.96 2.74 2.4v.34c-.8-.18-1.82-.3-2.66-.3-2.06 0-4.34.76-4.34 3.24 0 2.02 1.68 2.92 3.38 2.92 1.56 0 2.78-.48 3.74-1.28.28.84.98 1.16 1.76 1.16.4 0 .82-.08 1.2-.22v-1.3c-.24.08-.5.14-.74.14-.42 0-.74-.16-.74-.74zm-6.96-.76c0-1.4 1.52-1.82 2.92-1.82.78 0 1.76.14 2.44.28v1.76c-.84.9-2.06 1.4-3.28 1.4-1.06 0-2.08-.5-2.08-1.62zm11.756 2.76v-4.06h5.56v4.06h1.6v-9.6h-1.6v4.06h-5.56v-4.06h-1.6v9.6h1.6zm9.459-4.8c0 3.42 2.48 5.04 5.32 5.04 1.26 0 2.52-.24 3.4-.7v-1.56c-.82.46-1.98.78-3.16.78-1.94 0-3.76-.84-3.96-2.86h7.64c.6-2.72-.76-5.74-4.46-5.74-2.28 0-4.78 1.68-4.78 5.04zm7.82-.7h-6.22c.12-1.88 1.64-2.86 3.28-2.86 2.44 0 3.08 1.84 2.94 2.86zM11.82 7.672v6.18h-8.3v-6.18H1.84v14h1.68v-6.22h8.3v6.22h1.68v-14h-1.68zm12.636 12v-3.76c0-2.68-1.62-4.08-4.18-4.08-1.58 0-2.9.38-3.66.64v1.56c.84-.36 2.02-.72 3.5-.72 1.76 0 2.74.96 2.74 2.4v.34c-.8-.18-1.82-.3-2.66-.3-2.06 0-4.34.76-4.34 3.24 0 2.02 1.68 2.92 3.38 2.92 1.56 0 2.78-.48 3.74-1.28.28.84.98 1.16 1.76 1.16.4 0 .82-.08 1.2-.22v-1.3c-.24.08-.5.14-.74.14-.42 0-.74-.16-.74-.74zm-6.96-.76c0-1.4 1.52-1.82 2.92-1.82.78 0 1.76.14 2.44.28v1.76c-.84.9-2.06 1.4-3.28 1.4-1.06 0-2.08-.5-2.08-1.62zm9.496-2c0 3.42 2.62 5 5.14 5 1.2 0 2.22-.22 3.12-.66v-1.6c-.8.48-1.86.78-2.9.78-1.88 0-3.76-1.1-3.76-3.56 0-2.52 1.94-3.56 3.8-3.56 1.02 0 2.04.3 2.76.86v-1.56c-.82-.54-1.88-.78-2.96-.78-2.5 0-5.2 1.58-5.2 5.08z" fill="#000"/><path d="M22.874 38.318v44.354H7.92V49.596H.317V38.318h22.557zm40.93 32.758v11.596H28.258v-9.188l16.03-14.827c1.395-1.31 2.324-2.429 2.789-3.358.464-.93.697-1.838.697-2.725 0-1.098-.38-1.943-1.14-2.534-.719-.634-1.775-.95-3.17-.95a7.2 7.2 0 00-3.8 1.076c-1.184.719-2.092 1.732-2.725 3.042l-11.279-5.64c1.69-3.167 4.16-5.66 7.413-7.476 3.253-1.859 7.182-2.788 11.786-2.788 3.506 0 6.61.57 9.314 1.71 2.704 1.141 4.816 2.767 6.337 4.88 1.52 2.112 2.28 4.54 2.28 7.286 0 2.45-.527 4.752-1.584 6.907-1.013 2.112-3.02 4.52-6.019 7.223l-6.336 5.766h14.953zm23.153 12.61c-3.928 0-7.413-.909-10.455-2.725-2.999-1.859-5.364-4.52-7.096-7.984-1.69-3.506-2.535-7.667-2.535-12.482 0-4.816.845-8.956 2.535-12.42 1.731-3.506 4.097-6.167 7.096-7.983 3.042-1.859 6.527-2.788 10.455-2.788 3.929 0 7.392.93 10.392 2.788 3.041 1.816 5.407 4.477 7.096 7.983 1.732 3.464 2.598 7.604 2.598 12.42 0 4.815-.866 8.976-2.598 12.482-1.689 3.464-4.055 6.125-7.096 7.984-3 1.816-6.463 2.724-10.392 2.724zm0-11.976c3.38 0 5.07-3.739 5.07-11.215 0-7.477-1.69-11.216-5.07-11.216-3.38 0-5.069 3.739-5.069 11.216 0 7.476 1.69 11.215 5.07 11.215zm43.871 11.975c-3.928 0-7.413-.908-10.454-2.724-3-1.859-5.365-4.52-7.097-7.984-1.69-3.506-2.535-7.667-2.535-12.482 0-4.816.845-8.956 2.535-12.42 1.732-3.506 4.097-6.167 7.097-7.983 3.041-1.859 6.526-2.788 10.454-2.788 3.929 0 7.393.93 10.392 2.788 3.041 1.816 5.407 4.477 7.097 7.983 1.732 3.464 2.597 7.604 2.597 12.42 0 4.815-.865 8.976-2.597 12.482-1.69 3.464-4.056 6.125-7.097 7.984-2.999 1.816-6.463 2.724-10.392 2.724zm0-11.975c3.38 0 5.069-3.739 5.069-11.215 0-7.477-1.689-11.216-5.069-11.216-3.379 0-5.069 3.739-5.069 11.216 0 7.476 1.69 11.215 5.069 11.215zM174.7 83.685c-3.929 0-7.414-.908-10.455-2.724-2.999-1.859-5.365-4.52-7.097-7.984-1.689-3.506-2.534-7.667-2.534-12.482 0-4.816.845-8.956 2.534-12.42 1.732-3.506 4.098-6.167 7.097-7.983 3.041-1.859 6.526-2.788 10.455-2.788 3.928 0 7.392.93 10.391 2.788 3.042 1.816 5.407 4.477 7.097 7.983 1.732 3.464 2.598 7.604 2.598 12.42 0 4.815-.866 8.976-2.598 12.482-1.69 3.464-4.055 6.125-7.097 7.984-2.999 1.816-6.463 2.724-10.391 2.724zm0-11.975c3.379 0 5.069-3.739 5.069-11.215 0-7.477-1.69-11.216-5.069-11.216-3.38 0-5.069 3.739-5.069 11.216 0 7.476 1.689 11.215 5.069 11.215z" fill="#DC0000"/><path d="M5.021 57.363c-5.55 2.68 10.719 17.226 80.197 8.613m6.03-5.12c-3.207 1.1-4.69 1.867-5.36 5.12-.67 3.254 2.727 5.072 5.838 4.594m1.387-5.168c-2.344 1.388-4.88 1.818-6.65.91-1.771-.91-2.441-1.867-2.25-3.446m112.977-5.503c5.551 2.68-10.718 17.226-80.197 8.613m-6.029-5.12c3.206 1.1 4.69 1.867 5.36 5.12.669 3.254-2.728 5.072-5.838 4.594m-1.388-5.168c2.345 1.388 4.881 1.818 6.651.91 1.771-.91 2.441-1.867 2.249-3.446" stroke="#000" stroke-linecap="round"/></svg>