<svg width="87" height="93" fill="none" xmlns="http://www.w3.org/2000/svg"><path d="M43.655 9.794a2.17 2.17 0 00-1.628.746c-.407.441-.645 1.018-.61 1.595v6.41c0 .61.237 1.221.644 1.628a2.284 2.284 0 001.628.679c.61 0 1.22-.238 1.628-.679.44-.44.678-1.051.644-1.628v-6.444c0-.61-.237-1.221-.678-1.662-.407-.407-.984-.645-1.628-.645zM25 15.12c-.678.746-.78 1.831-.271 2.713l3.222 5.562c.305.543.78.916 1.39 1.086.204.068.408.068.611.068.407 0 .78-.102 1.153-.306.543-.305.916-.814 1.086-1.424.17-.577.067-1.221-.238-1.764l-3.222-5.563c-.407-.712-1.187-1.187-2.001-1.187h-.102c-.644.068-1.221.34-1.628.814zm-3.493-2.85a2.307 2.307 0 003.12.814 2.166 2.166 0 001.052-1.39c.17-.61.068-1.221-.238-1.73l-.034-.034-.034-.034a2.307 2.307 0 00-1.967-1.12h-.102a2.35 2.35 0 00-1.458.611c-.746.713-.916 1.934-.34 2.883zm2 66.48h-.068c-.61 0-1.153.271-1.56.678-.44.441-.712 1.018-.712 1.628 0 .61.237 1.221.678 1.662a2.285 2.285 0 001.628.679h.034a2.26 2.26 0 001.628-.713l.034-.034c.679-.644.882-1.662.51-2.543-.442-.814-1.256-1.357-2.172-1.357zM63.87 13.423c.645 0 1.221-.27 1.662-.712l.034-.034.034-.034c.644-.678.848-1.628.475-2.51a2.294 2.294 0 00-2.103-1.39h-.068a2.358 2.358 0 00-1.56.678l-.034.034a2.47 2.47 0 00-.712 1.628c0 .61.237 1.221.678 1.662.373.441.95.678 1.594.678zm-20.182-5.46c.611 0 1.222-.238 1.629-.679.44-.44.678-1.017.644-1.628V2.434c0-.61-.237-1.221-.678-1.662a2.265 2.265 0 00-1.595-.678h-.067c-.61 0-1.187.271-1.628.712-.407.44-.645 1.017-.61 1.594v3.188c0 .61.236 1.188.644 1.662a2.26 2.26 0 001.661.713zm12.551 16.348a2.25 2.25 0 001.153.305c.237 0 .44-.034.678-.101.61-.17 1.086-.61 1.39-1.154l3.223-5.562c.407-.712.44-1.594.034-2.306a2.321 2.321 0 00-2.001-1.154c-.61 0-1.187.238-1.628.679l-.204.203v.034c-.068.102-.136.17-.17.271l-3.222 5.563a2.317 2.317 0 00-.305 1.764c.102.61.509 1.153 1.052 1.458zM35.04 46.324c.27.102.542.136.813.136.34 0 .645-.068.95-.204a2.277 2.277 0 001.187-1.323 2.275 2.275 0 00-.101-1.763v-.034c1.017-.272 1.763-1.187 1.73-2.273a2.318 2.318 0 00-2.307-2.238h-.034c-1.492 0-2.883.95-3.561 2.408-.61 1.323-.61 2.747 0 4.036a2.515 2.515 0 001.322 1.255z" fill="#E9041E"/><path d="M45.317 61.96L56.41 50.937l.271-.17v-.101l.916-.916a10.083 10.083 0 002.985-7.19c0-2.714-1.052-5.258-2.985-7.157a10.053 10.053 0 00-7.157-2.951c-2.476 0-4.85.882-6.716 2.51-1.831-1.629-4.172-2.51-6.614-2.544h-.135c-2.34 0-4.545.814-6.31 2.272l-.033-.034-.814.814a10.083 10.083 0 00-2.985 7.191c0 2.713 1.052 5.257 2.985 7.157l1.12 1.119L42.06 62.028c.441.441 1.018.645 1.628.645a2.47 2.47 0 001.628-.713zm-12.244-23.3l.305-.306c1.018-.915 2.273-1.424 3.562-1.424h.101c1.425.034 2.816.644 3.901 1.73l1.12 1.085c.44.44 1.017.678 1.627.678.61 0 1.188-.237 1.628-.678l1.12-1.12c1.051-1.05 2.476-1.661 3.934-1.661 1.493 0 2.883.576 3.969 1.662 1.051 1.051 1.662 2.442 1.662 3.9 0 1.459-.577 2.85-1.662 3.935l-1.086 1.12-9.565 9.496-9.53-9.463-1.12-1.12c-1.051-1.05-1.662-2.441-1.662-3.9a5.704 5.704 0 011.696-3.934z" fill="#E9041E"/><path d="M85.815 44.526c-.034-.034-4.714-5.087-12.21-10.073-6.92-4.58-17.74-10.074-29.916-10.074-12.177 0-22.997 5.495-29.916 10.074-7.462 4.952-12.142 10.006-12.21 10.073-.814.882-.814 2.273 0 3.12.034.035 4.714 5.089 12.21 10.075C20.693 62.3 31.48 67.794 43.69 67.794c12.177 0 22.997-5.494 29.916-10.073 7.462-4.986 12.143-10.006 12.21-10.074.78-.882.814-2.239 0-3.12zM43.69 28.958c18.35 0 33.138 13.33 36.937 17.129-3.799 3.765-18.587 17.128-36.937 17.128-18.35 0-33.138-13.33-36.937-17.128 3.799-3.765 18.553-17.129 36.937-17.129zM29.952 67.59c-.61 0-1.187.238-1.628.68a2.559 2.559 0 00-.373.474l-3.223 5.597a2.318 2.318 0 00.848 3.12 2.308 2.308 0 003.12-.814l3.223-5.563c.407-.712.441-1.594.034-2.306-.44-.746-1.187-1.187-2.001-1.187zm35.886 12.28a2.307 2.307 0 00-1.968-1.12h-.101a2.395 2.395 0 00-1.628.78c-.679.746-.747 1.832-.238 2.68v.034c.305.542.814.95 1.39 1.119.204.068.408.068.611.068.407 0 .814-.102 1.154-.306a2.299 2.299 0 001.051-1.458c.136-.61.034-1.255-.305-1.764l.034-.034zm-22.149 4.34h-.034a2.26 2.26 0 00-1.628.713c-.407.44-.645 1.017-.61 1.594v3.222c0 .61.237 1.188.678 1.628.44.441 1.017.679 1.628.679.61 0 1.187-.238 1.628-.679.44-.44.678-1.051.644-1.628v-3.188c0-.61-.237-1.221-.678-1.662a2.284 2.284 0 00-1.628-.678zm19.197-8.14c.17-.61.068-1.22-.237-1.763l-3.222-5.563a2.284 2.284 0 00-2.002-1.187h-.067c-.61.034-1.221.305-1.628.746-.679.746-.78 1.832-.272 2.713l3.222 5.597a2.28 2.28 0 002.002 1.153 2.26 2.26 0 001.153-.305c.509-.305.882-.78 1.051-1.39zm-19.198-4.782h-.067c-.61 0-1.187.271-1.628.712-.407.441-.645 1.018-.61 1.594v6.41c0 .611.236 1.222.644 1.663.44.44 1.017.678 1.628.678.61 0 1.22-.237 1.628-.678.44-.441.678-1.052.644-1.628v-6.445c0-.61-.237-1.22-.678-1.662-.373-.407-.95-.644-1.56-.644z" fill="#E9041E"/></svg>