<svg width="103" height="93" fill="none" xmlns="http://www.w3.org/2000/svg"><path d="M95.582.094H7.988C4.028.094.785 3.308.785 7.267v62.428c0 3.958 3.243 7.139 7.203 7.139h29.665l-2.526 11.301h-4.54c-1.093 0-2.015.88-2.015 1.996a2.01 2.01 0 002.014 1.997h42.398c1.092 0 2.014-.88 2.014-1.996a2.009 2.009 0 00-2.014-1.997h-4.54l-2.526-11.267h29.63c3.994 0 7.237-3.215 7.203-7.173V7.267c.034-3.959-3.175-7.173-7.169-7.173zM7.988 4.053h87.56c.854 0 1.673.338 2.287.947.615.61.956 1.421.956 2.267v52.175H4.78V7.267c0-.846.341-1.658.956-2.267a3.11 3.11 0 012.253-.947zm56.394 84.082h-25.16l2.527-11.267h20.106l2.527 11.267zm31.2-15.26H7.988a3.246 3.246 0 01-2.287-.947c-.615-.61-.956-1.421-.922-2.267V63.4h94.012v6.26a3.19 3.19 0 01-.956 2.267 3.11 3.11 0 01-2.253.947z" fill="#E9041E"/><path d="M77.012 23.78a2.064 2.064 0 00-.785-1.388 2.007 2.007 0 00-1.57-.372L53.32 25.979h-3.07l-21.335-3.96a2.007 2.007 0 00-1.57.373c-.444.338-.752.846-.786 1.387a28.722 28.722 0 00.546 8.189c1.332 5.92 4.711 9.372 9.695 9.913.649.068 1.331.102 2.014.102 3.243 0 6.008-.947 8.227-2.842 1.775-1.49 2.902-3.384 3.653-5.177h2.253c.75 1.793 1.911 3.688 3.652 5.177 2.22 1.895 4.984 2.842 8.227 2.842.683 0 1.332-.034 2.014-.102 4.984-.54 8.33-3.958 9.695-9.913.512-2.707.683-5.448.478-8.189zM58.51 42.152c-.887 0-1.639.575-1.912 1.387-.136.373-1.16 2.673-4.813 2.673-3.652 0-4.642-2.3-4.813-2.673a2.023 2.023 0 00-2.219-1.387 1.976 1.976 0 00-1.707 1.963c0 .203.034.44.103.642.068.237 1.843 5.414 8.602 5.414 6.793 0 8.534-5.177 8.602-5.413.069-.204.103-.407.103-.643.034-1.05-.854-1.963-1.946-1.963z" fill="#E9041E"/></svg>