<svg width="45" height="94" fill="none" xmlns="http://www.w3.org/2000/svg"><g clip-path="url(#clip0)" fill="#E9041E"><path d="M32.703 60.851a19.003 19.003 0 007.521-15.146V22.797c0-10.292-8.117-18.669-18.09-18.669-9.973 0-18.09 8.377-18.09 18.669v22.908c0 5.983 2.783 11.59 7.52 15.146v4.787C4.608 61.603.168 54.013.168 45.67V22.762c0-12.48 9.873-22.668 22-22.668s22 10.189 22 22.703v22.908c0 8.308-4.44 15.933-11.43 19.933v-4.787h-.034z"/><path d="M22.167 27.72c-1.06 0-1.955-.923-1.955-2.017v-9.266c0-1.128.862-2.017 1.955-2.017 1.094 0 1.955.889 1.955 2.017v9.266c0 1.128-.861 2.017-1.955 2.017zm0 65.374c-.563 0-.994-.171-1.391-.582L9.544 80.922c-.73-.753-.73-2.086 0-2.838a1.922 1.922 0 011.391-.582c.53 0 1.027.206 1.392.582l7.885 8.137V52.748c0-1.128.862-2.017 1.955-2.017 1.094 0 1.955.889 1.955 2.017V86.29l7.952-8.206a1.76 1.76 0 011.358-.616c.497 0 .994.205 1.392.581.729.753.729 2.086 0 2.838L23.592 92.478c-.464.445-.895.616-1.425.616z"/></g><defs><clipPath id="clip0"><path fill="#fff" transform="translate(.167 .094)" d="M0 0h44v93H0z"/></clipPath></defs></svg>