<svg width="133" height="92" fill="none" xmlns="http://www.w3.org/2000/svg"><path d="M131.047 84.55h-11.294c-1.561-2.136-3.494-3.425-5.699-3.798-.475-.068-.983-.136-1.492-.102h-25.27c-1.763-2.069-4.002-3.9-7.088-4.206-.407-.034-.78-.068-1.187-.034H50.83a33.821 33.821 0 01-.475-4.104c-.95-14.958 4.036-38.734 11.498-54.031l26.016.27-.442-2.204c-.27-1.357-2.78-13.431-9.836-15.772-.61-.203-1.187-.339-1.831-.373V.094H29.123C26.58.06 23.933 1.248 21.22 3.69 13.08 11.016 7.856 26.55 5.448 35.166 1.751 48.394-.148 62.673.462 72.476c.577 8.819 3.969 19.13 11.668 19.197v-1.831 1.831h111.794c2.51.034 5.122-1.39 8.243-3.832 1.39-1.086.61-3.29-1.12-3.29zm-17.637-.169c1.458.237 2.713 1.221 3.799 2.985.101.17.237.373.407.61h-12.55c.271-.203.577-.407.848-.644 2.001-1.594 4.952-3.392 7.496-2.951zm-9.803.068c-3.357 2.645-6.308 3.799-8.75 3.426-1.832-.306-3.494-1.493-4.918-3.562h13.872c-.068.034-.136.102-.204.136zm-33.409-4.41c-1.323.984-2.68 2.171-4.07 3.562-2.578 2.51-6.241 5.257-9.26 4.104-2.374-.916-4.104-3.934-5.19-7.632h18.52v-.033zm13.059-65.292l-19.503-.204c1.933-3.391 4.002-6.173 6.139-8.106 2.476-2.239 4.68-3.087 6.512-2.476 3.46 1.187 5.766 6.987 6.852 10.786zM4.159 72.272C2.904 52.362 12.13 16.85 23.696 6.437c2.001-1.798 3.8-2.713 5.393-2.68h38.226c-8.072 7.36-13.296 22.827-15.704 31.409-3.697 13.228-5.597 27.507-4.986 37.31.34 5.495 1.798 11.668 4.816 15.466H12.164c-4.816 0-7.53-8.14-8.005-15.67zm64.547 13.974c4.477-4.375 8.208-6.444 11.125-6.139 3.086.306 5.155 3.392 6.953 6.106.441.678.916 1.255 1.39 1.797H66.773c.645-.542 1.29-1.153 1.934-1.764z" fill="#E9041E"/><path d="M51.814 9.998h-25.54a1.824 1.824 0 00-1.832 1.832c0 1.018.814 1.832 1.832 1.832h25.54a1.824 1.824 0 001.832-1.832 1.824 1.824 0 00-1.832-1.832zM41.232 21.429h-21.64a1.824 1.824 0 00-1.831 1.832c0 1.017.814 1.831 1.831 1.831h21.606a1.824 1.824 0 001.832-1.831c.034-1.018-.78-1.832-1.798-1.832zm4.647 7.801H16.167a1.824 1.824 0 00-1.832 1.832c0 1.017.814 1.831 1.831 1.831H45.88a1.824 1.824 0 001.832-1.831c0-.984-.815-1.832-1.832-1.832zM35.5 37.065H13.894a1.824 1.824 0 00-1.832 1.832c0 1.017.815 1.831 1.832 1.831H35.5a1.824 1.824 0 001.831-1.831c.034-1.018-.814-1.832-1.831-1.832zm-3.087 15.637h-21.64a1.824 1.824 0 00-1.832 1.831c0 1.018.814 1.832 1.832 1.832h21.606a1.824 1.824 0 001.832-1.832c.033-.984-.78-1.831-1.798-1.831zm6.885 7.835H9.552a1.824 1.824 0 00-1.831 1.831c0 1.018.814 1.832 1.831 1.832h29.713a1.824 1.824 0 001.831-1.832c.034-1.017-.78-1.831-1.797-1.831zm-8.106 7.903H9.552a1.824 1.824 0 00-1.831 1.831c0 1.018.814 1.832 1.831 1.832h21.606a1.824 1.824 0 001.832-1.832c.034-.984-.78-1.832-1.798-1.832zm9.091 7.868H11.52a1.824 1.824 0 00-1.832 1.832c0 1.018.814 1.832 1.832 1.832h28.73a1.824 1.824 0 001.831-1.832c.034-.984-.78-1.832-1.797-1.832zM41.741 44.9H12.03a1.824 1.824 0 00-1.832 1.832c0 1.017.814 1.831 1.832 1.831h29.71a1.824 1.824 0 001.832-1.831A1.824 1.824 0 0041.74 44.9z" fill="#E9041E"/></svg>