<svg width="64" height="92" fill="none" xmlns="http://www.w3.org/2000/svg"><path d="M52.722 55.821a21.027 21.027 0 00-4.986-12.617c3.528-3.087 8.14-8.039 10.617-14.551 5.02-13.093-.136-26.762-.34-27.338A2.002 2.002 0 0056.928.229a2.193 2.193 0 00-.678-.135c-.306 0-.577.067-.848.203-.543.271-13.568 7.19-18.52 20.114-1.763 4.579-2.442 9.768-2.069 15.432a20.258 20.258 0 00-7.02 0c.406-5.664-.306-10.82-2.036-15.432C20.805 7.488 7.781.602 7.237.297A1.945 1.945 0 006.39.094c-.237 0-.44.034-.644.135A1.9 1.9 0 004.66 1.315c-.203.576-5.291 14.381-.339 27.338 2.51 6.546 7.123 11.498 10.65 14.55-3.154 3.732-4.918 8.446-5.02 13.364-5.63 3.392-9.09 9.497-9.09 16.01 0 10.31 8.378 18.689 18.69 18.689h24.93c10.31 0 18.688-8.378 18.688-18.69 0-7.19-4.002-13.566-10.447-16.755zM33.117 84.414V83.16l3.494-6.037c.509-.882-.136-2.001-1.153-2.001h-7.089c-1.018 0-1.662 1.119-1.153 2l3.527 6.106c.034.068.102.136.136.204v.983c0 1.221-.509 2.34-1.357 3.12H19.516c-8.208 0-14.924-6.715-14.924-14.957 0-5.597 3.087-10.684 8.107-13.296.61-.305 1.017-1.052.983-1.832v-.508c0-4.783 1.866-9.26 5.292-12.618a1.84 1.84 0 00.542-1.425 1.95 1.95 0 00-.678-1.356c-3.663-2.917-8.547-7.768-11.023-14.28-3.392-8.819-1.459-18.417-.306-22.59C11.14 6.98 18.974 12.848 22.366 21.7c1.797 4.715 2.34 10.21 1.56 16.247-.068.61.17 1.255.644 1.662.34.272.746.441 1.187.441.17 0 .373-.034.543-.068a17.269 17.269 0 015.088-.746c1.73 0 3.425.238 5.053.746.17.068.34.068.543.068.441 0 .882-.17 1.187-.44a1.9 1.9 0 00.645-1.663c-.78-6.071-.238-11.532 1.56-16.246 3.392-8.82 11.227-14.687 14.856-17.027 1.153 4.138 3.053 13.736-.305 22.59-2.476 6.477-7.36 11.328-11.023 14.245-.408.339-.679.814-.679 1.356a1.84 1.84 0 00.543 1.425c3.426 3.358 5.291 7.869 5.291 12.685 0 .747.441 1.425 1.153 1.696 5.63 2.34 9.26 7.768 9.26 13.839 0 8.242-6.75 14.992-14.992 14.992H34.474c-.848-.746-1.356-1.866-1.356-3.087z" fill="#E9041E"/><path d="M22.196 59.044c-2.51 0-4.274 2.136-4.274 5.189s1.764 5.19 4.274 5.19 4.273-2.137 4.273-5.19c0-3.053-1.73-5.19-4.273-5.19zm0 7.36c-.272-.407-.577-1.12-.577-2.171 0-1.052.305-1.764.577-2.17.27.406.576 1.118.576 2.17 0 1.017-.305 1.764-.576 2.17zm18.248-7.36c-2.51 0-4.274 2.136-4.274 5.189s1.764 5.19 4.274 5.19 4.273-2.137 4.273-5.19c0-3.053-1.763-5.19-4.273-5.19zm0 3.018c.271.407.576 1.12.576 2.17 0 1.052-.305 1.765-.576 2.172-.272-.407-.577-1.12-.577-2.171 0-1.052.305-1.764.577-2.17z" fill="#E9041E"/></svg>