<svg width="92" height="91" fill="none" xmlns="http://www.w3.org/2000/svg"><path d="M39.054 90.927a10.98 10.98 0 01-4.952-1.188l-6.41-3.222-.136.34a6.8 6.8 0 01-6.24 4.07H7.07c-3.765 0-6.818-3.087-6.818-6.818V41.236A6.818 6.818 0 017.07 34.42h18.519a9.375 9.375 0 007.326-3.528c5.02-6.274 8.65-13.33 10.854-21.063l1.12-3.934c.983-3.392 4.171-5.8 7.733-5.8h1.763c4.41 0 8.039 3.595 8.039 8.038v3.324a60.197 60.197 0 01-4.341 22.522l-.17.475 22.013-.034c6.139 0 11.091 4.986 11.091 11.091v9.667c0 9.056-2.374 18.01-6.885 25.913l-3.223 5.665c-1.492 2.577-4.24 4.172-7.19 4.172H39.054zm13.568-85.78c-1.323 0-2.51.882-2.883 2.171l-1.12 3.935A64.776 64.776 0 0136.85 34.08a14.566 14.566 0 01-8.648 5.19l-.34.067.068.34c.136.508.204 1.05.204 1.593v39.888l8.242 4.104a6.147 6.147 0 002.713.645h34.665c1.153 0 2.238-.645 2.815-1.629l3.222-5.664a47.18 47.18 0 006.207-23.403v-9.667a6.065 6.065 0 00-6.071-6.071H58.388a5.295 5.295 0 01-4.444-2.375c-.983-1.492-1.187-3.358-.542-4.986 2.645-6.58 3.968-13.533 3.968-20.656V8.132a2.99 2.99 0 00-2.985-2.985h-1.763zM7.07 39.44c-.984 0-1.764.78-1.764 1.764v42.872c0 .984.78 1.764 1.764 1.764h14.245c.984 0 1.764-.78 1.764-1.764v-42.84c0-.983-.78-1.763-1.764-1.763L7.07 39.439z" fill="#E9041E"/><path d="M14.158 79.462c-1.22 0-2.51-.78-2.51-2.51 0-1.73 1.323-2.51 2.51-2.51 1.221 0 2.51.78 2.51 2.51 0 1.73-1.322 2.51-2.51 2.51z" fill="#E9041E"/></svg>