<svg width="118" height="94" fill="none" xmlns="http://www.w3.org/2000/svg"><g clip-path="url(#clip0)" fill="#E9041E"><path d="M13.381 93.094C6.184 93.094.334 87.237.334 80.03V35.448c0-7.206 5.85-13.063 13.047-13.063h18.543a13 13 0 019.254 3.834c2.481 2.484 3.829 5.75 3.829 9.264v44.548c0 3.479-1.348 6.78-3.83 9.264a12.94 12.94 0 01-9.253 3.834H13.381v-.035zm0-66.84c-5.07 0-9.182 4.118-9.182 9.194v44.548c0 2.413.992 4.791 2.694 6.495a9.264 9.264 0 006.488 2.698h18.543c2.41 0 4.786-.994 6.488-2.698a9.286 9.286 0 002.695-6.495V35.448a9.286 9.286 0 00-2.695-6.496 9.264 9.264 0 00-6.488-2.698H13.381z"/><path d="M22.316 81.983h-.107c-.106-.035-.177-.035-.248-.07-.106-.036-.213-.107-.32-.178l-.034-.036a.775.775 0 01-.178-.142l-.035-.035-.036-.036a2.046 2.046 0 01-.567-1.42c0-.532.213-1.029.567-1.42.071-.07.178-.141.284-.212.142-.071.248-.142.355-.213.106-.036.248-.071.354-.107.142-.035.248-.035.39-.035.46 0 .886.142 1.206.426.46.355.709.923.709 1.49 0 .498-.213 1.03-.568 1.385-.354.355-.85.568-1.382.568h-.213a.39.39 0 01-.177.035zm20.032 3.692v-3.87h61.903a9.262 9.262 0 006.488-2.697 9.285 9.285 0 002.695-6.496v-1.774H42.348v-3.87h73.036c.496 0 1.028.213 1.383.568.354.355.567.852.567 1.385v3.727a13.03 13.03 0 01-3.829 9.264 12.941 12.941 0 01-9.254 3.834H42.348v-.071z"/><path d="M106.059 67.11V13.156a9.285 9.285 0 00-2.694-6.496 9.265 9.265 0 00-6.488-2.697H22.67c-5.07 0-9.182 4.117-9.182 9.193v11.43H9.623v-11.43C9.623 5.95 15.473.094 22.67.094h74.171a13 13 0 019.254 3.833c2.482 2.485 3.829 5.75 3.829 9.265V67.11h-3.865z"/></g><defs><clipPath id="clip0"><path fill="#fff" transform="translate(.334 .094)" d="M0 0h117v93H0z"/></clipPath></defs></svg>